<svg xmlns="http://www.w3.org/2000/svg" viewBox="0 0 48 48"><rect x="8" y="8" width="32" height="32" rx="4" fill="#21759B"/><path fill="#fff" d="M14 24c0 4.1 2.1 7.8 5.3 9.9l-4.5-12.4C14.3 22.3 14 23.1 14 24zm17.3-.7c0-1.3-.5-2.2-.9-2.9-.5-.9-.9-1.7-.9-2.6 0-1 .8-2 1.9-2 .1 0 .1 0 .2 0-2-1.8-4.6-2.9-7.5-2.9-3.9 0-7.4 2-9.4 5l.3.1c.5 0 1.3-.1 1.3-.1.7 0 .6 1 .1 1 0 0-.7.1-1.4.2l4.5 13.4 2.7-8.1-1.9-5.3c-.7 0-1.3-.2-1.3-.2-.7 0-.6-1.1 0-1.1 0 0 2.1.1 3.4.1 1 0 2.8-.1 2.8-.1.7 0 .6 1 .1 1 0 0-.7.1-1.4.2l4.4 13.2 1.2-4.1c.5-1.7.9-2.9.9-3.9zm-3.7 1.5l-3.7 10.7c1.1.3 2.3.5 3.5.5 1.3 0 2.5-.2 3.7-.5-.1 0-.1-.1-.2-.1-1.4-.4-3.3-2.8-3.3-10.6zm-10.8 10c2.5 1.6 5.5 2.6 8.7 2.6 2.1 0 4.1-.4 5.9-1.1-1.9-1.1-4.4-3.8-5.6-7.7l-3.3 9.5-5.7-3.3zM24 10c-7.7 0-14 6.3-14 14s6.3 14 14 14 14-6.3 14-14-6.3-14-14-14zm0 26.5c-6.9 0-12.5-5.6-12.5-12.5S17.1 11.5 24 11.5 36.5 17.1 36.5 24 30.9 36.5 24 36.5z"/></svg>
